<svg width="129" height="37" viewBox="0 0 129 37" fill="none" xmlns="http://www.w3.org/2000/svg">
<path d="M7.128 15.264C7.992 13.6 9.16 12.336 10.632 11.472C12.136 10.576 13.88 10.112 15.864 10.08V16.128C13.208 15.968 11.08 16.592 9.48 18C7.912 19.376 7.128 21.248 7.128 23.616V36H0.888V10.32H7.128V15.264Z" fill="white"/>
<path d="M31.4794 10.128C34.1354 10.128 36.4714 10.672 38.4874 11.76C40.5354 12.848 42.1194 14.384 43.2394 16.368C44.3914 18.32 44.9674 20.576 44.9674 23.136C44.9674 25.728 44.3914 28.016 43.2394 30C42.1194 31.984 40.5354 33.52 38.4874 34.608C36.4714 35.696 34.1354 36.24 31.4794 36.24C28.7914 36.24 26.4234 35.696 24.3754 34.608C22.3274 33.52 20.7274 31.984 19.5754 30C18.4554 28.016 17.8954 25.728 17.8954 23.136C17.8954 20.576 18.4554 18.32 19.5754 16.368C20.7274 14.384 22.3274 12.848 24.3754 11.76C26.4234 10.672 28.7914 10.128 31.4794 10.128ZM31.4794 15.456C29.3034 15.456 27.5434 16.176 26.1994 17.616C24.8554 19.056 24.1834 20.928 24.1834 23.232C24.1834 25.536 24.8554 27.408 26.1994 28.848C27.5434 30.288 29.3034 31.008 31.4794 31.008C33.5914 31.008 35.3194 30.288 36.6634 28.848C38.0074 27.408 38.6794 25.536 38.6794 23.232C38.6794 20.928 38.0074 19.056 36.6634 17.616C35.3194 16.176 33.5914 15.456 31.4794 15.456Z" fill="white"/>
<path d="M65.508 10.128C67.908 10.128 70.02 10.688 71.844 11.808C73.7 12.896 75.124 14.432 76.116 16.416C77.14 18.4 77.652 20.688 77.652 23.28C77.652 25.84 77.156 28.096 76.164 30.048C75.172 32 73.764 33.52 71.94 34.608C70.116 35.696 68.004 36.24 65.604 36.24C63.684 36.24 61.988 35.872 60.516 35.136C59.044 34.368 57.828 33.264 56.868 31.824V36H50.628V0.384003H56.868V14.544C57.796 13.104 58.98 12.016 60.42 11.28C61.892 10.512 63.588 10.128 65.508 10.128ZM64.116 30.864C66.228 30.864 67.956 30.144 69.3 28.704C70.644 27.232 71.316 25.36 71.316 23.088C71.316 20.816 70.644 18.96 69.3 17.52C67.956 16.08 66.228 15.36 64.116 15.36C61.972 15.36 60.228 16.08 58.884 17.52C57.54 18.96 56.868 20.816 56.868 23.088C56.868 25.392 57.54 27.264 58.884 28.704C60.228 30.144 61.972 30.864 64.116 30.864Z" fill="white"/>
<path d="M94.2919 10.128C96.9479 10.128 99.2839 10.672 101.3 11.76C103.348 12.848 104.932 14.384 106.052 16.368C107.204 18.32 107.78 20.576 107.78 23.136C107.78 25.728 107.204 28.016 106.052 30C104.932 31.984 103.348 33.52 101.3 34.608C99.2839 35.696 96.9479 36.24 94.2919 36.24C91.6039 36.24 89.2359 35.696 87.1879 34.608C85.1399 33.52 83.5399 31.984 82.3879 30C81.2679 28.016 80.7079 25.728 80.7079 23.136C80.7079 20.576 81.2679 18.32 82.3879 16.368C83.5399 14.384 85.1399 12.848 87.1879 11.76C89.2359 10.672 91.6039 10.128 94.2919 10.128ZM94.2919 15.456C92.1159 15.456 90.3559 16.176 89.0119 17.616C87.6679 19.056 86.9959 20.928 86.9959 23.232C86.9959 25.536 87.6679 27.408 89.0119 28.848C90.3559 30.288 92.1159 31.008 94.2919 31.008C96.4039 31.008 98.1319 30.288 99.4759 28.848C100.82 27.408 101.492 25.536 101.492 23.232C101.492 20.928 100.82 19.056 99.4759 17.616C98.1319 16.176 96.4039 15.456 94.2919 15.456Z" fill="white"/>
<path d="M128.225 34.416C126.177 35.664 124.033 36.288 121.793 36.288C119.585 36.288 117.776 35.648 116.368 34.368C114.96 33.056 114.257 31.136 114.257 28.608V15.936H110.657L110.608 11.376H114.257V4.32H120.449V11.376H127.793V15.936H120.449V27.504C120.449 28.688 120.672 29.536 121.12 30.048C121.568 30.528 122.24 30.768 123.136 30.768C124.096 30.768 125.313 30.416 126.785 29.712L128.225 34.416Z" fill="white"/>
</svg>
