<svg width="40" height="40" viewBox="0 0 40 40" fill="none" xmlns="http://www.w3.org/2000/svg">
<path d="M31.0923 14.9745C31.0923 12.8652 29.5407 11.1683 27.6235 11.1683C25.0267 11.0469 22.3782 11 19.6717 11H18.8279C16.1279 11 13.4748 11.0469 10.8779 11.1687C8.96542 11.1687 7.41386 12.875 7.41386 14.9844C7.29667 16.6527 7.24698 18.3214 7.2498 19.9902C7.24511 21.6589 7.29823 23.3292 7.40917 25.0011C7.40917 27.1105 8.96073 28.8214 10.8732 28.8214C13.6014 28.948 16.3998 29.0042 19.2451 28.9995C22.0951 29.0089 24.8857 28.9495 27.617 28.8214C29.5342 28.8214 31.0857 27.1105 31.0857 25.0011C31.1982 23.3277 31.2498 21.6589 31.2451 19.9855C31.2557 18.3167 31.2048 16.6464 31.0923 14.9745ZM16.9529 24.5886V15.3777L23.7498 19.9808L16.9529 24.5886Z" fill="white"/>
</svg>
