<svg width="40" height="40" viewBox="0 0 40 40" fill="none" xmlns="http://www.w3.org/2000/svg">
<path d="M28.0705 9.5H10.5444C9.58672 9.5 8.75 10.1891 8.75 11.1355V28.7005C8.75 29.652 9.58672 30.5 10.5444 30.5H28.0653C29.0281 30.5 29.75 29.6464 29.75 28.7005V11.1355C29.7556 10.1891 29.0281 9.5 28.0705 9.5ZM15.2595 27.0045H12.2511V17.6506H15.2595V27.0045ZM13.8594 16.2284H13.8378C12.875 16.2284 12.2516 15.5117 12.2516 14.6145C12.2516 13.7009 12.8914 13.0011 13.8758 13.0011C14.8602 13.0011 15.4625 13.6958 15.4841 14.6145C15.4836 15.5117 14.8602 16.2284 13.8594 16.2284ZM26.2545 27.0045H23.2461V21.89C23.2461 20.6647 22.8083 19.8275 21.7198 19.8275C20.8883 19.8275 20.3961 20.39 20.1772 20.938C20.0952 21.1348 20.0731 21.403 20.0731 21.6767V27.0045H17.0647V17.6506H20.0731V18.9523C20.5109 18.3289 21.1948 17.4317 22.7863 17.4317C24.7611 17.4317 26.255 18.7334 26.255 21.5398L26.2545 27.0045Z" fill="white"/>
</svg>
