<svg width="40" height="40" viewBox="0 0 40 40" fill="none" xmlns="http://www.w3.org/2000/svg">
<path d="M19.25 9.5C13.4516 9.5 8.75 14.3234 8.75 20.2672C8.75 25.025 11.7594 29.0562 15.9312 30.4812C15.9898 30.494 16.0495 30.5002 16.1094 30.5C16.4984 30.5 16.6484 30.2141 16.6484 29.9656C16.6484 29.7078 16.6391 29.0328 16.6344 28.1328C16.2871 28.2142 15.9317 28.2567 15.575 28.2594C13.5547 28.2594 13.0953 26.6891 13.0953 26.6891C12.6172 25.4469 11.9281 25.1141 11.9281 25.1141C11.0141 24.4719 11.9234 24.4531 11.9937 24.4531H11.9984C13.0531 24.5469 13.6063 25.5687 13.6063 25.5687C14.1313 26.4875 14.8344 26.7453 15.4625 26.7453C15.8778 26.737 16.2867 26.6412 16.6625 26.4641C16.7563 25.7703 17.0281 25.2969 17.3281 25.025C14.9984 24.7531 12.5469 23.8297 12.5469 19.7047C12.5469 18.5281 12.9547 17.5672 13.625 16.8172C13.5172 16.5453 13.1562 15.4484 13.7281 13.9672C13.8048 13.9488 13.8837 13.9409 13.9625 13.9437C14.3422 13.9437 15.2 14.0891 16.6156 15.0734C18.3357 14.5922 20.1549 14.5922 21.875 15.0734C23.2906 14.0891 24.1484 13.9437 24.5281 13.9437C24.6069 13.9409 24.6858 13.9488 24.7625 13.9672C25.3344 15.4484 24.9734 16.5453 24.8656 16.8172C25.5359 17.5719 25.9437 18.5328 25.9437 19.7047C25.9437 23.8391 23.4875 24.7484 21.1484 25.0156C21.5234 25.3484 21.8609 26.0047 21.8609 27.0078C21.8609 28.4469 21.8469 29.6094 21.8469 29.9609C21.8469 30.2141 21.9922 30.5 22.3812 30.5C22.4442 30.5003 22.5071 30.494 22.5687 30.4812C26.7453 29.0562 29.75 25.0203 29.75 20.2672C29.75 14.3234 25.0484 9.5 19.25 9.5Z" fill="white"/>
</svg>
