<svg width="40" height="40" viewBox="0 0 40 40" fill="none" xmlns="http://www.w3.org/2000/svg">
<path fill-rule="evenodd" clip-rule="evenodd" d="M26.7148 12.5352C25.8951 11.7154 24.7842 11.2533 23.6248 11.2498H14.8752C13.7158 11.2533 12.6049 11.7154 11.7852 12.5352C10.9654 13.3549 10.5033 14.4658 10.4998 15.6252V24.3748C10.5033 25.5342 10.9654 26.6451 11.7852 27.4648C12.6049 28.2846 13.7158 28.7467 14.8752 28.7502H23.6248C24.7842 28.7467 25.8951 28.2846 26.7148 27.4648C27.5346 26.6451 27.9967 25.5342 28.0002 24.3748V15.6252C27.9967 14.4658 27.5346 13.3549 26.7148 12.5352ZM14.8752 9.5H23.6248C26.9937 9.5 29.75 12.2562 29.75 15.6252V24.3748C29.75 27.7437 26.9937 30.5 23.6248 30.5H14.8752C11.5062 30.5 8.75 27.7437 8.75 24.3748V15.6252C8.75 12.2562 11.5062 9.5 14.8752 9.5ZM24.2082 15.404C24.424 15.5482 24.6778 15.6252 24.9373 15.6252C25.1098 15.6255 25.2806 15.5918 25.4401 15.526C25.5995 15.4602 25.7443 15.3635 25.8663 15.2416C25.9882 15.1196 26.0849 14.9748 26.1507 14.8154C26.2165 14.656 26.2502 14.4851 26.2498 14.3127C26.2498 14.0531 26.1729 13.7993 26.0286 13.5835C25.8844 13.3676 25.6794 13.1994 25.4396 13.1001C25.1998 13.0007 24.9359 12.9747 24.6813 13.0254C24.4267 13.076 24.1928 13.201 24.0093 13.3846C23.8257 13.5681 23.7007 13.802 23.6501 14.0566C23.5994 14.3112 23.6254 14.5751 23.7248 14.8149C23.8241 15.0548 23.9923 15.2597 24.2082 15.404ZM21.1946 17.0897C20.619 16.7051 19.9423 16.4998 19.25 16.4998C18.322 16.5008 17.4323 16.8699 16.7761 17.5261C16.1199 18.1823 15.7508 19.072 15.7498 20C15.7498 20.6923 15.9551 21.369 16.3397 21.9446C16.7243 22.5202 17.271 22.9688 17.9106 23.2337C18.5501 23.4986 19.2539 23.568 19.9328 23.4329C20.6118 23.2978 21.2355 22.9645 21.725 22.475C22.2145 21.9855 22.5478 21.3618 22.6829 20.6828C22.818 20.0039 22.7486 19.3001 22.4837 18.6605C22.2188 18.021 21.7702 17.4743 21.1946 17.0897ZM16.3333 15.6348C17.1966 15.0579 18.2116 14.75 19.25 14.75C20.6424 14.75 21.9777 15.3031 22.9623 16.2877C23.9469 17.2723 24.5 18.6076 24.5 20C24.5 21.0383 24.1921 22.0534 23.6152 22.9167C23.0383 23.7801 22.2184 24.453 21.2591 24.8504C20.2998 25.2477 19.2442 25.3517 18.2258 25.1491C17.2074 24.9465 16.2719 24.4465 15.5377 23.7123C14.8035 22.9781 14.3035 22.0426 14.1009 21.0242C13.8983 20.0058 14.0023 18.9502 14.3996 17.9909C14.797 17.0316 15.4699 16.2117 16.3333 15.6348Z" fill="white"/>
</svg>
