<svg width="63" height="63" viewBox="0 0 63 63" fill="none" xmlns="http://www.w3.org/2000/svg">
<path d="M50.3333 34.8L23.6667 49.4667L37 56.6667L50.3333 49.4667V34.8Z" fill="#C067D1"/>
<path d="M55.6666 55.3333H7.66665L2.33331 60.6667H61L55.6666 55.3333Z" fill="#C067D1"/>
<path d="M15.7206 51.104L11.9494 47.3328L8.17817 51.104L11.9494 54.8752L15.7206 51.104Z" fill="#C067D1"/>
<path d="M29 38L37 34L45 38V46L37 50L29 46V38Z" stroke="#703EBB" stroke-width="3" stroke-miterlimit="10" stroke-linejoin="round"/>
<path d="M10.3333 27.8667V23.3333" stroke="#703EBB" stroke-width="3" stroke-miterlimit="10" stroke-linecap="round" stroke-linejoin="round"/>
<path d="M50.3333 49.4667L37 56.6667L23.6667 49.4667V34.8L37 27.3333L50.3333 34.8V49.4667Z" stroke="#703EBB" stroke-width="3" stroke-miterlimit="10" stroke-linejoin="round"/>
<path d="M15.7206 51.104L11.9494 47.3328L8.17817 51.104L11.9494 54.8752L15.7206 51.104Z" stroke="#703EBB" stroke-width="3" stroke-miterlimit="10" stroke-linecap="round" stroke-linejoin="round"/>
<path d="M46.3333 26L42.3333 20.6667H31.6666L27.6666 26L2.33331 28.6667V60.6667H61V28.6667L46.3333 26Z" stroke="#703EBB" stroke-width="3" stroke-miterlimit="10" stroke-linecap="round" stroke-linejoin="round"/>
<path d="M49 7.33333L42.3333 2H31.6666L25 7.33333" stroke="#703EBB" stroke-width="3" stroke-miterlimit="10" stroke-linecap="round" stroke-linejoin="round"/>
<path d="M45 11.3333L39.9333 7.33333H34.0666L29 11.3333" stroke="#703EBB" stroke-width="3" stroke-miterlimit="10" stroke-linecap="round" stroke-linejoin="round"/>
<path d="M41 15.3333L37.8 12.6667H36.4666L33 15.3333" stroke="#703EBB" stroke-width="3" stroke-miterlimit="10" stroke-linecap="round" stroke-linejoin="round"/>
</svg>
