<svg width="63" height="63" viewBox="0 0 63 63" fill="none" xmlns="http://www.w3.org/2000/svg">
<path d="M10 43.3333H8.5V44.2106L9.26461 44.6407L10 43.3333ZM31.3333 55.3333L30.5979 56.6407L31.3333 57.0544L32.0687 56.6407L31.3333 55.3333ZM52.6667 43.3333L53.4021 44.6407L54.1667 44.2106V43.3333H52.6667ZM52.6667 19.3333H54.1667V18.4561L53.4021 18.026L52.6667 19.3333ZM29.8334 60.6667C29.8334 61.4951 30.5049 62.1667 31.3334 62.1667C32.1618 62.1667 32.8334 61.4951 32.8334 60.6667H29.8334ZM32.8334 2C32.8334 1.17157 32.1618 0.5 31.3334 0.5C30.5049 0.5 29.8334 1.17157 29.8334 2H32.8334ZM2 29.8333C1.17157 29.8333 0.5 30.5049 0.5 31.3333C0.5 32.1618 1.17157 32.8333 2 32.8333V29.8333ZM60.6667 32.8333C61.4951 32.8333 62.1667 32.1618 62.1667 31.3333C62.1667 30.5049 61.4951 29.8333 60.6667 29.8333V32.8333ZM31.3333 7.33334L32.0687 6.02598C31.6121 5.76913 31.0546 5.76913 30.5979 6.02598L31.3333 7.33334ZM10 19.3333L9.26461 18.026C8.79229 18.2917 8.5 18.7914 8.5 19.3333H10ZM18 23.7333L17.2976 22.408C16.8069 22.668 16.5 23.178 16.5 23.7333H18ZM31.3333 16.6667L32.0358 15.3413C31.5964 15.1084 31.0702 15.1084 30.6309 15.3413L31.3333 16.6667ZM44.6667 23.7333H46.1667C46.1667 23.178 45.8598 22.668 45.3691 22.408L44.6667 23.7333ZM44.6667 38.9333L45.3691 40.2587C45.8598 39.9986 46.1667 39.4887 46.1667 38.9333H44.6667ZM31.3333 46L30.6309 47.3254C31.0702 47.5582 31.5964 47.5582 32.0358 47.3254L31.3333 46ZM18 38.9333H16.5C16.5 39.4887 16.8069 39.9986 17.2976 40.2587L18 38.9333ZM9.26461 44.6407L30.5979 56.6407L32.0687 54.026L10.7354 42.026L9.26461 44.6407ZM32.0687 56.6407L53.4021 44.6407L51.9313 42.026L30.5979 54.026L32.0687 56.6407ZM54.1667 43.3333V19.3333H51.1667V43.3333H54.1667ZM51.9313 18.026L9.26461 42.026L10.7354 44.6407L53.4021 20.6407L51.9313 18.026ZM32.8334 60.6667V2H29.8334V60.6667H32.8334ZM2 32.8333H60.6667V29.8333H2V32.8333ZM30.5979 6.02598L9.26461 18.026L10.7354 20.6407L32.0687 8.64071L30.5979 6.02598ZM8.5 19.3333V43.3333H11.5V19.3333H8.5ZM53.4021 18.026L32.0687 6.02598L30.5979 8.64071L51.9313 20.6407L53.4021 18.026ZM18.7024 25.0587L32.0358 17.992L30.6309 15.3413L17.2976 22.408L18.7024 25.0587ZM30.6309 17.992L43.9642 25.0587L45.3691 22.408L32.0358 15.3413L30.6309 17.992ZM43.1667 23.7333V38.9333H46.1667V23.7333H43.1667ZM43.9642 37.608L30.6309 44.6746L32.0358 47.3254L45.3691 40.2587L43.9642 37.608ZM32.0358 44.6746L18.7024 37.608L17.2976 40.2587L30.6309 47.3254L32.0358 44.6746ZM19.5 38.9333V23.7333H16.5V38.9333H19.5Z" fill="#703EBB"/>
</svg>
