<svg width="114" height="40" viewBox="0 0 114 40" fill="none" xmlns="http://www.w3.org/2000/svg">
<path d="M0 16.657H5.2417V18.6838C6.20462 17.6742 7.05882 16.9831 7.80431 16.6104C8.56533 16.2221 9.46612 16.028 10.5067 16.028C11.889 16.028 13.3333 16.4784 14.8398 17.3792L12.4403 22.1782C11.4463 21.4638 10.4756 21.1066 9.52825 21.1066C6.67055 21.1066 5.2417 23.2654 5.2417 27.583V39.3477H0V16.657Z" fill="white"/>
<path d="M16.3541 27.8393C16.3541 24.5622 17.5267 21.7744 19.8719 19.4758C22.217 17.1772 25.0747 16.028 28.445 16.028C31.8307 16.028 34.7039 17.185 37.0646 19.4991C39.3943 21.8132 40.5591 24.6554 40.5591 28.0256C40.5591 31.4269 39.3865 34.2768 37.0414 36.5754C34.6806 38.8585 31.7841 40 28.3518 40C24.9505 40 22.1006 38.8352 19.802 36.5055C17.5034 34.207 16.3541 31.3182 16.3541 27.8393ZM21.7123 27.9324C21.7123 30.2 22.318 31.9938 23.5294 33.3139C24.7719 34.6496 26.4104 35.3174 28.445 35.3174C30.4951 35.3174 32.1336 34.6573 33.3605 33.3372C34.5875 32.0171 35.2009 30.2543 35.2009 28.0489C35.2009 25.8435 34.5875 24.0808 33.3605 22.7606C32.118 21.425 30.4795 20.7571 28.445 20.7571C26.4415 20.7571 24.8185 21.425 23.576 22.7606C22.3335 24.0963 21.7123 25.8202 21.7123 27.9324Z" fill="white"/>
<path d="M51.3687 0V19.2895C53.4653 17.1151 55.8416 16.028 58.4974 16.028C61.557 16.028 64.1041 17.1695 66.1386 19.4525C68.1732 21.7201 69.1905 24.5467 69.1905 27.9324C69.1905 31.4269 68.1654 34.3157 66.1153 36.5987C64.0808 38.8662 61.5104 40 58.4042 40C55.7795 40 53.4343 38.9905 51.3687 36.9715V39.3477H46.127V0H51.3687ZM63.8323 28.1654C63.8323 25.9911 63.2421 24.2205 62.0617 22.8538C60.8659 21.456 59.3671 20.7571 57.5655 20.7571C55.6397 20.7571 54.0711 21.4327 52.8596 22.7839C51.6638 24.1196 51.0658 25.8591 51.0658 28.0023C51.0658 30.2077 51.656 31.9705 52.8363 33.2906C54.0167 34.6418 55.5698 35.3174 57.4956 35.3174C59.3128 35.3174 60.8193 34.6418 62.0151 33.2906C63.2266 31.9239 63.8323 30.2155 63.8323 28.1654Z" fill="white"/>
<path d="M73.6634 27.8393C73.6634 24.5622 74.836 21.7744 77.1811 19.4758C79.5263 17.1772 82.384 16.028 85.7542 16.028C89.14 16.028 92.0132 17.185 94.3739 19.4991C96.7036 21.8132 97.8684 24.6554 97.8684 28.0256C97.8684 31.4269 96.6958 34.2768 94.3506 36.5754C91.9899 38.8585 89.0934 40 85.661 40C82.2598 40 79.4098 38.8352 77.1112 36.5055C74.8127 34.207 73.6634 31.3182 73.6634 27.8393ZM79.0216 27.9324C79.0216 30.2 79.6273 31.9938 80.8387 33.3139C82.0812 34.6496 83.7197 35.3174 85.7542 35.3174C87.8043 35.3174 89.4428 34.6573 90.6698 33.3372C91.8967 32.0171 92.5102 30.2543 92.5102 28.0489C92.5102 25.8435 91.8967 24.0808 90.6698 22.7606C89.4273 21.425 87.7888 20.7571 85.7542 20.7571C83.7507 20.7571 82.1277 21.425 80.8853 22.7606C79.6428 24.0963 79.0216 25.8202 79.0216 27.9324Z" fill="white"/>
<path d="M109.121 21.5492V39.3477H103.879V21.5492H101.642V16.657H103.879V8.34013H109.121V16.657H113.197V21.5492H109.121Z" fill="white"/>
</svg>
