<svg width="63" height="63" viewBox="0 0 63 63" fill="none" xmlns="http://www.w3.org/2000/svg">
<path d="M44.1333 30L43.0667 19.6L32.6667 18.5333L21.4667 30L21.7333 40.9333L16.1333 35.3333L6.80001 37.2L16.1333 46.5333L25.4667 55.8667L27.3333 46.5333L21.7333 40.9333L32.6667 41.2L44.1333 30Z" fill="white"/>
<path d="M40.9334 32.9334L32.9334 40.9334L45.4667 60.6667L60.6667 45.4667L40.9334 32.9334Z" fill="#C167D1"/>
<path d="M29.7333 21.7333L17.2 2L2 17.2L21.7333 29.7333L29.7333 21.7333Z" fill="#C167D1"/>
<path d="M16.1333 46.5334L25.4667 55.8667L27.3333 46.5334L21.7333 40.9334L16.1333 46.5334Z" fill="#C167D1"/>
<path d="M43.0667 19.6L44.1333 30L32.6667 41.2L21.7333 40.9334L43.0667 19.6Z" fill="#C167D1"/>
<path d="M36.9334 36.9334L53.2 53.2" stroke="#703EBB" stroke-width="3" stroke-miterlimit="10" stroke-linecap="round" stroke-linejoin="round"/>
<path d="M53.7333 41.2L41.2 53.7333" stroke="#703EBB" stroke-width="3" stroke-miterlimit="10" stroke-linecap="round" stroke-linejoin="round"/>
<path d="M46.8 36.6667L36.9334 46.8" stroke="#703EBB" stroke-width="3" stroke-miterlimit="10" stroke-linecap="round" stroke-linejoin="round"/>
<path d="M25.7333 25.7333L9.46668 9.46668" stroke="#703EBB" stroke-width="3" stroke-miterlimit="10" stroke-linecap="round" stroke-linejoin="round"/>
<path d="M21.4667 8.93335L8.93336 21.4667" stroke="#703EBB" stroke-width="3" stroke-miterlimit="10" stroke-linecap="round" stroke-linejoin="round"/>
<path d="M26 15.8667L15.8667 25.7333" stroke="#703EBB" stroke-width="3" stroke-miterlimit="10" stroke-linecap="round" stroke-linejoin="round"/>
<path d="M32.6667 41.2L21.7333 40.9333L21.4667 30L32.6667 18.5333L43.0667 19.6L44.1333 30L32.6667 41.2Z" stroke="#703EBB" stroke-width="3" stroke-miterlimit="10" stroke-linecap="round" stroke-linejoin="round"/>
<path d="M30.8 20.4L42.2667 31.8666" stroke="#703EBB" stroke-width="3" stroke-miterlimit="10" stroke-linecap="round" stroke-linejoin="round"/>
<path d="M27.3333 46.5333L16.1333 35.3333L6.80001 37.2L16.1333 46.5333L25.4667 55.8667L27.3333 46.5333Z" stroke="#703EBB" stroke-width="3" stroke-miterlimit="10" stroke-linecap="round" stroke-linejoin="round"/>
<path d="M8.66667 54L16.1333 46.5333" stroke="#703EBB" stroke-width="3" stroke-miterlimit="10" stroke-linecap="round" stroke-linejoin="round"/>
<path d="M40.9334 32.9334L32.9334 40.9334L45.4667 60.6667L60.6667 45.4667L40.9334 32.9334Z" stroke="#703EBB" stroke-width="3" stroke-miterlimit="10" stroke-linecap="round" stroke-linejoin="round"/>
<path d="M29.7333 21.7333L17.2 2L2 17.2L21.7333 29.7333L29.7333 21.7333Z" stroke="#703EBB" stroke-width="3" stroke-miterlimit="10" stroke-linecap="round" stroke-linejoin="round"/>
</svg>
