<svg width="24" height="24" viewBox="0 0 24 24" fill="none" xmlns="http://www.w3.org/2000/svg">
<g clip-path="url(#clip0_1_116)">
<path d="M19.9499 5.97C19.8999 4.93 19.0599 4.09 18.0299 4.05C17.3299 4.02 16.6599 4 16.0099 4C10.9799 4 7.48994 4.97 5.54994 6.91C1.86994 10.59 2.39994 15.81 5.63994 18.81C5.64994 18.81 5.64994 18.81 5.64994 18.81C7.15994 14.59 10.1699 11.65 13.3199 10.01C13.1099 10.19 8.61994 13.59 7.80994 20.26C8.85994 20.74 10.0099 21.01 11.1699 21.01C13.2199 21.01 15.3299 20.21 17.0899 18.46C19.2799 16.26 20.2299 12.1 19.9499 5.97Z" fill="#E1E5E8"/>
</g>
<defs>
<clipPath id="clip0_1_116">
<rect width="24" height="24" fill="white"/>
</clipPath>
</defs>
</svg>
